<svg height="55" viewBox="-128 0 512 512" width="49" xmlns="http://www.w3.org/2000/svg"><path d="M240.52 476.973L220.492 497H51.598l-17.723-17.723-.074-51.789-15 .024.086 57.988L45.383 512h181.324l28.813-28.813V266.173h-15zm0 0" fill="#c75a9d"/><path d="M223.227 158.129H203.84l.055-60.496 20.453-33.317v-25.62L200.594 0H34.727v15.805H0V82.53h34.727v20.48h18.398v16.79l-16.688 26.426 37.516 23.03 23.172-36.937v-29.308h13.676v55.117H93.344l-32.285 52.586-.434 90.496-41.96 41.957.097 64.012 15-.02-.086-57.789 41.918-41.918.445-92.469 25.695-41.851h47.668v96.578H95.773l-.222 46.066-41.867 41.868.18 113.335 6.019 6.02H212.21l8.309-8.309V269.71h-56.118v-96.582h50.434l25.684 41.84v30.86h15V210.73zM15 67.53V30.805h19.727V67.53zm67.121 60.473l-12.98 20.695-11.91-7.308 10.894-17.25v-21.13h14v24.993zM49.727 88.012V15h142.472l17.149 27.93v17.148l-17.149 27.934H49.727zm139.164 15l-.051 54.953h-63.043v-54.953zM205.52 284.71V462H68.848l-.153-98.152 41.825-41.828.183-37.31h38.7v88.997h15v-88.996zm0 0" fill="#c75a9d"/><path d="M163.965 419.238h-15v-15h15zm-25 0h-15v-15h15zm0 0" fill="#c75a9d"/></svg>