<svg height="55" viewBox="0 -1 512 512" width="49" xmlns="http://www.w3.org/2000/svg"><path d="M512 221.191L256 0 69.004 161.566l9.805 11.348L256 19.82l234.848 202.914-23.184 26.825L256 66.668 44.336 249.558l-23.184-26.824 42.243-36.496-9.805-11.343L0 221.19l42.797 49.516 29.5-25.492v265.558h370.137V370.488h-14.996v125.29h-22.461v-22.403l-18.41-18.41h-14.93v-2.399l-18.41-18.41h-29.688l-18.41 18.41v2.399h-13.36l-18.41 18.41v22.402h-28.492V281.613l-38.48-29.734h-52.555l-38.48 29.734v214.164H87.293V235.41L257.359 88.47l170.079 146.94v114.742h14.996V247.574l26.77 23.133zM288.355 479.586l9.625-9.625h22.145v-11.184l9.625-9.625h17.266l9.625 9.625v11.184h23.714l9.625 9.625v16.191H288.355zm-158.011-190.61l28.605-22.101h42.32l28.602 22.102v206.8h-99.527zm0 0" fill="#c75a9d"/><path d="M404.977 388.293V247.852H264.535v140.441zm-125.45-125.445H389.98v110.449H279.527zm162.879-146.453h14.996v-15.493h15.496V85.906h-15.496V70.41h-14.996v15.496H426.91v14.996h15.496zM42.188 308.422H27.194v15.496H11.7v14.996h15.496v15.492h14.993v-15.492h15.496v-14.996H42.188zM277.57 194.996h-14.996V180h14.996zm-24.992 0h-14.996V180h14.996zm0 0" fill="#c75a9d"/></svg>