<svg height="55" viewBox="-26 0 512 512" width="49" xmlns="http://www.w3.org/2000/svg"><path d="M390.82 0H68.586L0 57.805v72.98h15.05V64.801l59.036-49.75h311.238l59.031 49.75v432.148H321.301v-16.058h108.004V354.465h-15.051V465.84h-88.95l8.86-11.496h45.594V265.93H159.19v188.414h45.594l8.664 11.496H45.156V78.8l39.926-33.644h289.246l39.926 33.645v255.254h15.05V71.8L379.82 30.105H79.586l-49.48 41.696v409.094h187.316v16.054H15.05V151.184H0V512h459.41V57.805zM199.16 439.293h-24.918V280.98h190.465v158.313h-24.918V317.422c-45.879 0-4.57-.004-22.559-.004v-16.836h-26.343v-11.953c-.102 0-41.403-.176-41.403 0-.097 0-.004-.61-.004 11.953h-26.34v59.473h-7.671c-.102.101-16.211 16.883-16.309 16.984zm15.063 2.566v-58.765l7.66-7.985h1.258v41.329h15.05c0-56.157.004 47.304.004-100.805h11.293v64.781h15.051V303.68h11.293c0 139.496.004 38.324.004 76.734h15.05v-64.781h11.29c0 14.543.004 41.777.004 64.781h15.05v-47.941h7.504v109.449c-19.726 25.598-18.484 23.887-18.484 23.984v30.04h-73.777v-30.102c-.27-.004 1.238 1.867-18.25-23.985zm0 0" fill="#c75a9d"/><path d="M79.527 192.563l113.809-113.81 10.644 10.645L90.172 203.207zm86.192-6.293L279.527 72.457l10.645 10.645-113.813 113.812zm69.633 27.53L349.16 99.993l10.645 10.64-113.809 113.813zm144.406 21.032v-15.55h15.555v-15.055h-15.555v-15.555h-15.051v15.555h-15.555v15.054h15.555v15.551zM115.457 355.117v-15.555h15.555v-15.05h-15.555v-15.555h-15.05v15.555H84.851v15.05h15.554v15.555zm182.125 79.149h-15.055V419.21h15.055zm-25.086 0h-15.055V419.21h15.055zm0 0" fill="#c75a9d"/></svg>