<svg height="55" viewBox="-75 0 512 512" width="49" xmlns="http://www.w3.org/2000/svg"><path d="M347.887 450.563l-34.664 46.44H49.66l-34.664-46.44v-146.2l30.918-78.89 39.191-29.235-8.964-12.02-42.63 31.794L0 301.527v154.016L42.14 512h278.602l42.14-56.457v-43.09h-14.995zm-18.516-234.551l-94.734-70.637 33.66-45.105V0H94.586v100.27l33.664 45.105-35.633 26.566 8.965 12.024 36.328-27.09h87.067l91.996 68.598 30.914 78.886v87.758h15v-90.59zM109.582 14.996h38.824v50.5h14.996v-50.5h36.078v50.5h14.997v-50.5H253.3V95.29l-34.656 46.441h-74.403l-34.66-46.44zm0 0" fill="#c75a9d"/><path d="M128.234 309.297l-5.586-15.695-14.128 5.027 13.789 38.73 38.73-13.789-5.031-14.129-13.395 4.77 38.86-72.688 23.8 44.11 13.2-7.121-37.063-68.684zm48.563 87.867l-10.965 10.965 10.602 10.605 29.07-29.07-29.07-29.07-10.602 10.605 10.965 10.965H105.52l17.914-33.195-13.2-7.125-29.847 55.32zm78.996-97.832l-40.09-9.105-9.11 40.09 14.626 3.32 3.008-13.239 33.168 61.766h-44.442v15h69.516L235.75 310.16l16.723 3.797zm-54.141 166.066h-14.996v-14.996h14.996zm-24.996 0H161.66v-14.996h14.996zm0 0" fill="#c75a9d"/></svg>