<svg height="55" viewBox="-95 0 512 512" width="49" xmlns="http://www.w3.org/2000/svg"><path d="M271.11 181.973l-28.005-27.008-11.671-47.567h-17V65.57H200.73L187.246 0h-97.02l-13.48 65.57H63.043v41.828H50.055L23.34 160.824l-9.363 37.992 14.566 3.586 8.96-36.367 21.821-43.637h160.344l9.906 40.356 29.875 28.812 48.25 74.657v136.949l-31.539 44.734L248.48 497H59.324l-21.82-43.637L15 362.04V257.36l7.902-32.086-14.566-3.585L0 255.539v108.32l23.34 94.72L50.055 512h207.187l31.617-56.066 33.84-48.004V261.797zM78.042 80.57h121.39v26.828H78.044zM102.461 15h72.555l10.398 50.57H92.063zm0 0" fill="#c75a9d"/><path d="M206.262 389v47.512h31.593l33.286-46.903V271.74l-35.121-53.8h-29.758v150.73h15V232.94h6.636l28.243 43.262v108.625l-26.036 36.684h-8.843V389zm-67.457-61.8h-15v-15h15zm-25 0h-15v-15h15zm0 0" fill="#c75a9d"/></svg>