<svg height="55" viewBox="-17 0 511 512" width="49" xmlns="http://www.w3.org/2000/svg"><path d="M477.113 356.094l-48.777-48.778h-57.25c.066-9.789.226-7.644.309-27.808l-15.016-.063c-.078 19.368-.246 18.188-.313 27.746h-47.425V257l32.324-32.324c-.016-13.485-.113-123.832-.113-123.946-121.266.063-122.774.907-133.641-2.168a40.492 40.492 0 01-17.672-12.058c-5.184-6.613-9.11-15.996-9.73-26.34-7.29.27-4 .215-14.914.215 0 15.402-7.415 29.363-17.95 37.652-3.523 2.828-6.43 4.285-10.343 6.43 0 10.012-.043-5.742-.012 120.14l32.398 32.391v50.2h-47.722c-.223-36.766-.45-80.555-.672-117.747l-15.02.09c.223 36.738.453 81.055.676 117.785H49.293L.5 356.11.855 512h476.618zm-79.867 122.945v17.816h-83.309v-40.902H164.024v40.902H80.758c-.051-14.277-.043-10.359-.043-17.816l51.183-45.035v-36.48h214.165v36.48zM179.043 496.73v-25.76h119.875v25.761zm16.785-386.37c6.75 3.085 15.676 5.406 24.45 5.406h105.57c.007 6.07.004 97.972.004 102.601-40.637 40.64-25.204 25.352-54.915 55.082h-64.246c-81.925-81.953-15.949-15.949-55.074-55.082V113.168c9.32-6.106 16.582-14.211 21.488-23.793 5.489 8.898 13.098 16.574 22.723 20.984zm-63.93 211.992l28.614-.012v60.164h-28.614zm43.63-.016c12.562 0-28.758-.129 117.784-.129 0 .195-.937.129 9.118.129v60.168H175.527zm8.648-49.422l16.199 16.195h76.879l16.062-16.058v34.137h-109.14zm133.27 109.59v-60.168h28.616v60.168zM15.53 362.316l39.98-39.98c3.38 0 57.989.023 61.368.02l.004 104.855-36.258 31.902-.176-49.867-15.015.055c.304 87.37.265 71.691.265 87.68H15.84zM412.5 496.98l-.305-87.734-15.02.055.177 49.828-36.274-31.914v-104.88h61.04l39.991 39.993.309 134.652zm0 0" fill="#c75a9d"/><path d="M120.48 169.11c-.054-24.423.485-50.294 7.614-74.481 18.504-62.863 90.129-94.711 149.879-72.61 32.718 12.11 59.832 40.211 70.754 73.34 9.445 28.668 8.18 51.711 7.73 163.735l15.02.062c.046-12.27.097-74.844.148-86.3.113-25.891.246-55.239-8.637-82.2-12.508-37.93-42.34-68.855-79.804-82.722-67.77-25.067-148.493 11.101-169.493 82.453-7.699 26.12-8.285 53.23-8.226 78.758zm138.567 262.816H244.03V416.91h15.016zm-25.027 0H219V416.91h15.02zm0 0" fill="#c75a9d"/></svg>