<svg height="55" viewBox="1 -26 511.999 511" width="49" xmlns="http://www.w3.org/2000/svg"><path d="M15 373.977v-89.25l32.781-32.782h139.25v-15h-30.11v-19.601l-18.726-18.739H80.938L62.203 217.34v19.605H41.566L0 278.512v101.68l36.078 36.074h33.188v-15H42.289zm62.203-150.422l9.95-9.946h44.827l9.938 9.946v13.39H77.203zm130.16 13.39v15h44.27l47.988 71.657v77.664h-85.187v15H314.62v-97.223l-54.98-82.098zm-65.515 122.082c-27.602 0-50.082 22.586-50.082 50.082 0 27.618 22.468 50.086 50.082 50.086 27.617 0 50.086-22.468 50.086-50.086 0-27.73-22.696-50.082-50.086-50.082zm35.082 50.082c0 19.348-15.735 35.082-35.082 35.082-19.344 0-35.082-15.734-35.082-35.082 0-19.425 15.898-35.082 35.082-35.082 19.25 0 35.082 15.715 35.082 35.082zm0 0" fill="#c75a9d"/><path d="M141.848 389.277c-10.938 0-19.836 8.899-19.836 19.836s8.898 19.832 19.836 19.832 19.832-8.894 19.832-19.832-8.895-19.836-19.832-19.836zm0 24.668a4.838 4.838 0 01-4.832-4.832 4.839 4.839 0 014.832-4.836 4.839 4.839 0 014.832 4.836 4.838 4.838 0 01-4.832 4.832zm349.215-74.027h-29.938v-23.375l-6.094-9.938v-96.53h10.899V160.07h-15v35h-33.004V76.41L390.02 48.504h-43.774L315.57 79.18v183.16l-8.144 8.144 10.605 10.606 12.54-12.535V85.39l21.886-21.887h31.352l19.117 19.117v127.453h11.523v96.531l-6.094 9.938v23.375h-29.94l-20.935 20.937v55.415H512v-55.415zm-51.032-37.02H429.45v-92.82h10.582zm-16.672 17.88l1.762-2.876h19.238l1.762 2.875v19.141H423.36zM497 401.27H372.48v-34.2l12.149-12.148h100.223L497 367.07zm0 0" fill="#c75a9d"/><path d="M282.566 65.512L332.578 15.5h71.113l47.239 47.23v77h15V56.516L409.902.5h-83.539l-58.797 58.797v160.238h15zM162.063 322.086h-15v-15h15zm-25 0h-15v-15h15zm0 0" fill="#c75a9d"/></svg>