<svg height="55px" viewBox="-26 0 512 512" width="49px" xmlns="http://www.w3.org/2000/svg"><path style="fill:#c75a9d;" d="m460.28125 297.128906h-39.589844l-27.136718-12.347656h-44.84375l-27.136719 12.347656h-78.558594v67.628906h13.058594l1.558593 39.160157 14.964844-.597657-1.539062-38.5625h49.808594v56.441407h100.53125v-56.441407h10.835937l-4.933594 123.765626-6.949219 6.957031h-119.25v14.972656h125.457032l15.472656-15.484375 5.191406-130.210938h13.058594zm-202.296875 52.65625v-37.683594h62.878906v37.683594zm148.441406 56.441406h-70.585937c0-14.09375 0-85 0-99.140624l16.117187-7.332032h38.351563l16.117187 7.332032zm14.972657-56.441406v-37.683594h23.90625v37.683594zm0 0"/><path style="fill:#c75a9d;" d="m416.695312 246.277344 13.515626-13.515625v-22.65625l-13.515626-13.515625h-21.488281l-13.515625 13.515625v22.65625l13.515625 13.515625zm-20.03125-29.96875 4.746094-4.746094h9.085938l4.742187 4.746094v10.253906l-4.742187 4.742188h-9.085938l-4.746094-4.742188zm0 0"/><path style="fill:#c75a9d;" d="m367.925781 139.96875 13.511719-13.515625v-22.65625l-13.511719-13.515625h-21.492187l-13.515625 13.515625v22.65625l13.515625 13.515625zm-20.03125-29.972656 4.742188-4.742188h9.085937l4.742188 4.742188v10.253906l-4.742188 4.746094h-9.085937l-4.742188-4.746094zm0 0"/><path style="fill:#c75a9d;" d="m288.636719 228.921875 13.515625-13.515625v-22.65625l-13.515625-13.515625h-21.488281l-13.515626 13.515625v22.65625l13.515626 13.515625zm-20.03125-29.972656 4.742187-4.742188h9.089844l4.742188 4.742188v10.253906l-4.742188 4.742187h-9.089844l-4.742187-4.742187zm0 0"/><path style="fill:#c75a9d;" d="m236.503906 426.082031c0-50.636719.003906-3.914062.003906-54.984375l-26.363281-26.363281h-41.234375v-32.839844l-8.492187-13.847656v-282.054687l-4.199219-15.992188h-39.78125l-4.195312 15.992188v52.308593h14.972656c0-57.597656-.316406-49.167969.773437-53.328125h16.679688c1.15625 4.402344.773437-18.398437.773437 280.570313h-18.226562v-206.949219h-14.972656v209.464844l-8.488282 13.835937v32.839844h-41.230468l-26.363282 26.363281c0 92.644532-.003906-28.675781-.003906 62.378906h14.972656v-22.199218h170.402344v60.347656l11.925781 11.925781 10.589844-10.589843-7.542969-7.539063v-24.367187h17.703125l16.195313 16.199218v23.464844l-16.304688 16.308594h-182.429687l-20.539063-20.53125v-22.722656h-14.972656v28.925781l29.3125 29.300781h194.828125l25.082031-25.078125v-35.871094l-24.96875-24.972656h-23.90625zm-117.773437-109.960937 3.433593-5.597656h28.339844l3.433594 5.597656v28.613281h-35.207031zm-67.597657 61.179687 17.59375-17.59375h135.214844l17.59375 17.59375v19h-170.402344zm0 0"/><path style="fill:#c75a9d;" d="m45.917969 335.113281v-14.972656h-15.472657v-15.472656h-14.972656v15.472656h-15.472656v14.972656h15.472656v15.472657h14.972656v-15.472657zm0 0"/><path style="fill:#c75a9d;" d="m156.511719 460.460938h-14.972657v-14.972657h14.972657zm-24.957031 0h-14.972657v-14.972657h14.972657zm0 0"/></svg>