<svg height="55px" viewBox="1 -26 511.999 511" width="49px" xmlns="http://www.w3.org/2000/svg"><path style="fill:#c75a9d;" d="m15 373.976562v-89.25l32.78125-32.78125h139.25v-15h-30.109375v-19.601562l-18.726563-18.738281h-57.257812l-18.734375 18.734375v19.605468h-20.636719l-41.566406 41.566407v101.679687l36.078125 36.074219h33.1875v-15h-26.976563zm62.203125-150.421874 9.949219-9.945313h44.828125l9.9375 9.945313v13.390624h-64.714844zm0 0"/><path style="fill:#c75a9d;" d="m207.363281 236.945312v15h44.269531l47.988282 71.65625v77.664063h-85.1875v15h100.1875v-97.222656l-54.980469-82.097657zm0 0"/><path style="fill:#c75a9d;" d="m141.847656 359.027344c-27.601562 0-50.082031 22.585937-50.082031 50.082031 0 27.617187 22.46875 50.085937 50.082031 50.085937 27.617188 0 50.085938-22.46875 50.085938-50.085937 0-27.730469-22.695313-50.082031-50.085938-50.082031zm35.082032 50.082031c0 19.347656-15.734376 35.082031-35.082032 35.082031-19.34375 0-35.082031-15.734375-35.082031-35.082031 0-19.425781 15.898437-35.082031 35.082031-35.082031 19.25 0 35.082032 15.714844 35.082032 35.082031zm0 0"/><path style="fill:#c75a9d;" d="m141.847656 389.277344c-10.9375 0-19.835937 8.898437-19.835937 19.835937s8.898437 19.832031 19.835937 19.832031 19.832032-8.894531 19.832032-19.832031-8.894532-19.835937-19.832032-19.835937zm0 24.667968c-2.664062 0-4.832031-2.167968-4.832031-4.832031 0-2.667969 2.167969-4.835937 4.832031-4.835937 2.664063 0 4.832032 2.167968 4.832032 4.835937 0 2.664063-2.167969 4.832031-4.832032 4.832031zm0 0"/><path style="fill:#c75a9d;" d="m491.0625 339.917969h-29.9375v-23.375l-6.09375-9.9375v-96.53125h10.898438v-50.003907h-15v35h-33.003907v-118.660156l-27.90625-27.90625h-43.773437l-30.675782 30.675782v183.160156l-8.144531 8.144531 10.605469 10.605469 12.539062-12.535156v-183.164063l21.886719-21.886719h31.351563l19.117187 19.117188v127.453125h11.523438v96.53125l-6.09375 9.9375v23.375h-29.941407l-20.933593 20.9375v55.414062h154.519531v-55.414062zm-51.03125-37.019531h-10.582031v-92.820313h10.582031zm-16.671875 17.878906 1.761719-2.875h19.238281l1.761719 2.875v19.140625h-22.761719zm73.640625 80.492187h-124.519531v-34.199219l12.148437-12.148437h100.222656l12.148438 12.148437zm0 0"/><path style="fill:#c75a9d;" d="m282.566406 65.511719 50.011719-50.011719h71.113281l47.238282 47.230469v77h15v-83.214844l-56.027344-56.015625h-83.539063l-58.796875 58.796875v160.238281h15zm0 0"/><path style="fill:#c75a9d;" d="m162.0625 322.085938h-15v-15h15zm-25 0h-15v-15h15zm0 0"/></svg>