<svg height="55px" viewBox="-75 0 512 512" width="49px" xmlns="http://www.w3.org/2000/svg"><path style="fill:#c75a9d;" d="m347.886719 450.5625-34.664063 46.441406h-263.5625l-34.664062-46.441406v-146.199219l30.917968-78.890625 39.191407-29.234375-8.964844-12.019531-42.628906 31.792969-33.511719 85.515625v154.015625l42.140625 56.457031h278.601563l42.140624-56.457031v-43.089844h-14.996093zm0 0"/><path style="fill:#c75a9d;" d="m329.371094 216.011719-94.734375-70.636719 33.660156-45.105469v-100.269531h-173.710937v100.269531l33.664062 45.105469-35.632812 26.566406 8.964843 12.023438 36.328125-27.089844h87.066406l91.996094 68.597656 30.914063 78.886719v87.757813h15v-90.589844zm-219.789063-201.015625h38.824219v50.5h14.996094v-50.5h36.078125v50.5h14.996093v-50.5h38.824219v80.292968l-34.65625 46.441407h-74.402343l-34.660157-46.441407zm0 0"/><path style="fill:#c75a9d;" d="m128.234375 309.296875-5.585937-15.695313-14.128907 5.027344 13.789063 38.730469 38.730468-13.789063-5.03125-14.128906-13.394531 4.769532 38.859375-72.6875 23.800782 44.109374 13.199218-7.121093-37.0625-68.683594zm0 0"/><path style="fill:#c75a9d;" d="m176.796875 397.164062-10.964844 10.964844 10.601563 10.605469 29.070312-29.070313-29.070312-29.070312-10.601563 10.605469 10.964844 10.964843h-71.277344l17.914063-33.195312-13.199219-7.125-29.847656 55.320312zm0 0"/><path style="fill:#c75a9d;" d="m255.792969 299.332031-40.089844-9.105469-9.109375 40.089844 14.625 3.320313 3.007812-13.238281 33.167969 61.765624h-44.441406v15h69.515625l-46.71875-87.003906 16.722656 3.796875zm0 0"/><path style="fill:#c75a9d;" d="m201.652344 465.398438h-14.996094v-14.996094h14.996094zm-24.996094 0h-14.996094v-14.996094h14.996094zm0 0"/></svg>