<svg height="55px" viewBox="-95 0 512 512" width="49px" xmlns="http://www.w3.org/2000/svg"><path style="fill:#c75a9d;" d="m271.109375 181.972656-28.003906-27.007812-11.671875-47.566406h-17v-41.828126h-13.703125l-13.484375-65.570312h-97.019532l-13.480468 65.570312h-13.703125v41.828126h-12.988281l-26.714844 53.425781-9.363282 37.992187 14.566407 3.585938 8.960937-36.367188 21.820313-43.636718h160.34375l9.90625 40.355468 29.875 28.8125 48.25 74.65625v136.949219l-31.539063 44.734375-27.679687 49.09375h-189.15625l-21.820313-43.636719-22.503906-91.324219v-104.679687l7.902344-32.085937-14.566406-3.585938-8.335938 33.851562v108.320313l23.339844 94.71875 26.714844 53.421875h207.1875l31.617187-56.066406 33.839844-48.003906v-146.132813zm-193.066406-101.402344h121.390625v26.828126h-121.390625zm24.417969-65.570312h72.554687l10.398437 50.570312h-93.351562zm0 0"/><path style="fill:#c75a9d;" d="m206.261719 389v47.511719h31.59375l33.285156-46.902344v-117.871094l-35.121094-53.796875h-29.757812v150.730469h15v-135.730469h6.636719l28.242187 43.261719v108.625l-26.035156 36.683594h-8.84375v-32.511719zm0 0"/><path style="fill:#c75a9d;" d="m138.804688 327.199219h-15v-15h15zm-25 0h-15v-15h15zm0 0"/></svg>