<svg height="55px" viewBox="-17 0 511 511.99988" width="49px" xmlns="http://www.w3.org/2000/svg"><path style="fill:#c75a9d;" d="m477.113281 356.09375-48.777343-48.777344h-57.25c.066406-9.789062.226562-7.644531.308593-27.808594l-15.015625-.0625c-.078125 19.367188-.246094 18.1875-.3125 27.746094h-47.425781v-50.191406l32.324219-32.324219c-.015625-13.484375-.113282-123.832031-.113282-123.945312-121.265624.0625-122.773437.90625-133.640624-2.167969-6.933594-2.378906-13.015626-6.589844-17.671876-12.058594-5.183593-6.613281-9.109374-15.996094-9.730468-26.339844-7.289063.269532-4 .214844-14.914063.214844 0 15.402344-7.414062 29.363282-17.949219 37.652344-3.523437 2.828125-6.429687 4.285156-10.34375 6.429688 0 10.011718-.042968-5.742188-.011718 120.140624l32.398437 32.390626v50.199218h-47.722656c-.222656-36.765625-.449219-80.554687-.671875-117.746094l-15.019531.089844c.222656 36.738282.453125 81.054688.675781 117.785156h-56.957031l-48.792969 48.789063.355469 155.890625h476.617187zm-79.867187 122.945312v17.816407h-83.308594v-40.902344h-149.914062v40.902344h-83.265626c-.050781-14.277344-.042968-10.359375-.042968-17.816407l51.183594-45.035156v-36.480468h214.164062v36.480468zm-218.203125 17.691407v-25.761719h119.875v25.761719zm16.785156-386.371094c6.75 3.085937 15.675781 5.40625 24.449219 5.40625h105.570312c.007813 6.070313.003906 97.972656.003906 102.601563-40.636718 40.640624-25.203124 25.351562-54.914062 55.082031h-64.246094c-81.925781-81.953125-15.949218-15.949219-55.074218-55.082031v-105.199219c9.320312-6.105469 16.582031-14.210938 21.488281-23.792969 5.488281 8.898438 13.097656 16.574219 22.722656 20.984375zm-63.929687 211.992187c9.535156-.003906 19.074218-.007812 28.613281-.011718v60.164062h-28.613281zm43.628906-.015624c12.5625 0-28.757813-.128907 117.785156-.128907 0 .195313-.9375.128907 9.117188.128907v60.167968h-126.902344zm8.648437-49.421876 16.199219 16.195313h76.878906l16.0625-16.058594v34.136719h-109.140625zm133.269531 109.589844v-60.167968h28.617188v60.167968zm-301.914062-20.1875 39.980469-39.980468c3.378906 0 57.988281.023437 61.367187.019531 0 5.660156.003906 90.160156.003906 104.855469l-36.257812 31.902343-.175781-49.867187-15.015625.054687c.304687 87.371094.265625 71.691407.265625 87.679688h-49.859375zm396.96875 134.664063-.304688-87.734375-15.019531.054687.175781 49.828125-36.273437-31.914062c0-21.511719 0-83.710938 0-104.878906h61.039063l39.992187 39.992187.308594 134.652344zm0 0"/><path style="fill:#c75a9d;" d="m120.480469 169.109375c-.054688-24.421875.484375-50.292969 7.613281-74.480469 18.503906-62.863281 90.128906-94.7109372 149.878906-72.609375 32.71875 12.109375 59.832032 40.210938 70.753906 73.339844 9.445313 28.667969 8.179688 51.710937 7.730469 163.734375l15.019531.0625c.046876-12.269531.097657-74.84375.148438-86.300781.113281-25.890625.246094-55.238281-8.636719-82.199219-12.507812-37.929688-42.339843-68.855469-79.804687-82.722656-67.769532-25.066406-148.492188 11.101562-169.492188 82.453125-7.699218 26.121093-8.285156 53.230469-8.226562 78.757812zm0 0"/><path style="fill:#c75a9d;" d="m259.046875 431.925781h-15.015625v-15.015625h15.015625zm-25.027344 0h-15.019531v-15.015625h15.019531zm0 0"/></svg>