<svg height="55px" viewBox="-128 0 512 512" width="49px" xmlns="http://www.w3.org/2000/svg"><path style="fill:#c75a9d;" d="m240.519531 476.972656-20.027343 20.027344h-168.894532l-17.722656-17.722656-.074219-51.789063-15 .023438.085938 57.988281 26.496093 26.5h181.324219l28.8125-28.8125v-217.015625h-15zm0 0"/><path style="fill:#c75a9d;" d="m223.226562 158.128906h-19.386718l.054687-60.496094 20.453125-33.316406v-25.621094l-23.753906-38.695312h-165.867188v15.804688h-34.726562v66.726562h34.726562v20.480469h18.398438v16.789062l-16.6875 26.425781 37.515625 23.03125 23.171875-36.9375v-29.308593h13.675781v55.117187h-17.457031l-32.285156 52.585938-.433594 90.496094-41.960938 41.957031.097657 64.011719 15-.019532-.085938-57.789062 41.917969-41.917969.445312-92.46875 25.695313-41.851563h47.667969v96.578126h-53.628906l-.222657 46.066406-41.867187 41.867187.179687 113.335938 6.019531 6.019531h152.328126l8.308593-8.308594v-198.980468h-56.117187v-96.582032h50.433594l25.683593 41.839844v30.859375h15v-35.097656zm-208.226562-90.597656v-36.726562h19.726562v36.726562zm67.121094 60.472656-12.980469 20.695313-11.910156-7.308594 10.894531-17.25v-21.128906h14v24.992187zm-32.394532-39.992187c0-21.605469 0-46.683594 0-73.011719h142.472657l17.148437 27.929688v17.148437l-17.148437 27.933594c-13.179688 0-129.292969 0-142.472657 0zm139.164063 15-.050781 54.953125h-63.042969v-54.953125zm16.628906 181.699219v177.289062h-136.671875l-.152344-98.152344 41.824219-41.828125.183594-37.308593h38.699219v88.996093h15v-88.996093zm0 0"/><path style="fill:#c75a9d;" d="m163.964844 419.238281h-15v-15h15zm-25 0h-15v-15h15zm0 0"/></svg>