<svg height="55px" viewBox="-26 0 512 512" width="49px" xmlns="http://www.w3.org/2000/svg"><path style="fill:#c75a9d;" d="m390.820312 0h-322.234374l-68.585938 57.804688v72.980468h15.050781v-65.984375l59.035157-49.75h311.238281l59.03125 49.75v432.148438h-123.054688v-16.058594h108.003907v-126.425781h-15.050782v111.375h-88.949218l8.859374-11.496094h45.59375v-188.414062h-220.566406v188.414062h45.59375l8.664063 11.496094h-168.292969v-387.039063l39.925781-33.644531h289.246094l39.925781 33.644531v255.253907h15.050782v-262.253907l-49.484376-41.695312h-300.234374l-49.480469 41.695312v409.09375h187.316406v16.054688h-202.371094v-345.765625h-15.050781v360.816406h459.410156v-454.195312zm-191.660156 439.292969h-24.917968v-158.3125h190.464843v158.3125h-24.917969v-121.871094c-45.878906 0-4.570312-.003906-22.558593-.003906v-16.835938c-53.558594 0-5.386719 0-26.34375 0v-11.953125c-.101563 0-41.402344-.175781-41.402344 0-.097656 0-.003906-.609375-.003906 11.953125h-26.339844v59.472657h-7.671875c-.101562.101562-16.210938 16.882812-16.308594 16.984374zm15.0625 2.566406v-58.765625l7.660156-7.984375h1.257813v41.328125h15.050781c0-56.15625.003906 47.304688.003906-100.804688h11.292969v64.78125h15.050781c0-15.625 0-60.214843 0-76.734374h11.292969c0 139.496093.003907 38.324218.003907 76.734374h15.050781v-64.78125h11.289062c0 14.542969.003907 41.777344.003907 64.78125h15.050781v-47.941406h7.503906v109.449219c-19.726563 25.597656-18.484375 23.886719-18.484375 23.984375v30.039062h-73.777344c0-11.835937 0-19.238281 0-30.101562-.269531-.003906 1.238282 1.867188-18.25-23.984375zm0 0"/><path style="fill:#c75a9d;" d="m79.527344 192.5625 113.808594-113.808594 10.644531 10.644532-113.808594 113.808593zm0 0"/><path style="fill:#c75a9d;" d="m165.71875 186.269531 113.808594-113.8125 10.644531 10.644531-113.8125 113.8125zm0 0"/><path style="fill:#c75a9d;" d="m235.351562 213.800781 113.808594-113.808593 10.644532 10.640624-113.808594 113.8125zm0 0"/><path style="fill:#c75a9d;" d="m379.757812 234.832031v-15.550781h15.554688v-15.054688h-15.554688v-15.554687h-15.050781v15.554687h-15.554687v15.054688h15.554687v15.550781zm0 0"/><path style="fill:#c75a9d;" d="m115.457031 355.117188v-15.554688h15.554688v-15.050781h-15.554688v-15.554688h-15.050781v15.554688h-15.554688v15.050781h15.554688v15.554688zm0 0"/><path style="fill:#c75a9d;" d="m297.582031 434.265625h-15.054687v-15.054687h15.054687zm-25.085937 0h-15.054688v-15.054687h15.054688zm0 0"/></svg>