<svg height="55px" viewBox="0 -1 512 512" width="49px" xmlns="http://www.w3.org/2000/svg"><path style="fill:#c75a9d;" d="m512 221.191406-256-221.191406-186.996094 161.566406 9.804688 11.347656 177.191406-153.09375 234.847656 202.914063-23.183594 26.824219-211.664062-182.890625-211.664062 182.890625-23.183594-26.824219 42.242187-36.496094-9.804687-11.34375-53.589844 46.296875 42.796875 49.515625 29.5-25.492187v265.558594h370.136719v-140.285157h-14.996094v125.289063h-22.460938v-22.402344l-18.410156-18.410156h-14.929687v-2.398438l-18.410157-18.410156h-29.6875l-18.410156 18.410156v2.398438h-13.359375l-18.410156 18.410156v22.402344h-28.492187v-214.164063l-38.480469-29.734375h-52.554688l-38.480469 29.734375v214.164063h-28.058593v-260.367188l170.066406-146.941406 170.078125 146.941406v114.742188h14.996094v-102.578125l26.769531 23.132812zm-223.644531 258.394532 9.625-9.625h22.144531v-11.183594l9.625-9.625h17.265625l9.625 9.625v11.183594h23.714844l9.625 9.625v16.191406h-101.625zm-158.011719-190.609376 28.605469-22.101562h42.320312l28.601563 22.101562v206.800782h-99.527344zm0 0"/><path style="fill:#c75a9d;" d="m404.976562 388.292969v-140.441407h-140.441406v140.441407zm-125.449218-125.445313h110.453125v110.449219h-110.453125zm0 0"/><path style="fill:#c75a9d;" d="m442.40625 116.394531h14.996094v-15.492187h15.496094v-14.996094h-15.496094v-15.496094h-14.996094v15.496094h-15.496094v14.996094h15.496094zm0 0"/><path style="fill:#c75a9d;" d="m42.1875 308.421875h-14.992188v15.496094h-15.496093v14.996093h15.496093v15.492188h14.992188v-15.492188h15.496094v-14.996093h-15.496094zm0 0"/><path style="fill:#c75a9d;" d="m277.570312 194.996094h-14.996093v-14.996094h14.996093zm-24.992187 0h-14.996094v-14.996094h14.996094zm0 0"/></svg>