<svg version="1.1" id="Capa_1" xmlns="http://www.w3.org/2000/svg" x="0" y="0" viewBox="0 0 368.029 368.029" xml:space="preserve"><path d="M363.568 204.926c-2.056-7.448-3.992-14.488-3.992-20.912 0-6.424 1.936-13.464 3.992-20.912 3.272-11.856 6.648-24.12 2.608-36.04-4.192-12.4-14.64-20.504-24.744-28.328-6.056-4.696-11.776-9.128-15.488-14.008-3.776-4.976-6.448-11.616-9.264-18.648-4.648-11.552-9.448-23.504-20.2-31.008-10.576-7.392-23.776-8.104-36.52-8.784-7.952-.424-15.472-.832-21.768-2.792-5.888-1.832-11.984-5.632-18.432-9.656C209.384 7.358 197.616.014 184.008.014c-13.608 0-25.376 7.344-35.752 13.832-6.448 4.024-12.528 7.832-18.424 9.656-6.304 1.96-13.824 2.368-21.776 2.792-12.752.688-25.936 1.392-36.52 8.784-10.752 7.504-15.552 19.448-20.2 31-2.832 7.032-5.504 13.68-9.28 18.656-3.712 4.896-9.432 9.328-15.488 14.032-10.096 7.832-20.528 15.92-24.72 28.304-4.04 11.928-.664 24.184 2.6 36.048 2.056 7.448 3.992 14.48 3.992 20.904s-1.936 13.464-3.992 20.912c-3.264 11.856-6.64 24.12-2.6 36.056 4.192 12.384 14.632 20.488 24.728 28.312 6.056 4.688 11.776 9.128 15.48 14.008 3.784 4.976 6.456 11.616 9.28 18.656 4.648 11.552 9.456 23.504 20.216 31.024 10.568 7.376 23.76 8.08 36.504 8.76 7.952.424 15.472.832 21.768 2.792 5.888 1.832 11.976 5.632 18.416 9.648 10.384 6.472 22.152 13.824 35.768 13.824s25.392-7.352 35.784-13.832c6.44-4.016 12.52-7.816 18.416-9.648 6.296-1.96 13.816-2.368 21.768-2.792 12.752-.68 25.936-1.384 36.504-8.76 10.776-7.52 15.576-19.488 20.224-31.048 2.824-7.024 5.488-13.664 9.248-18.624 3.712-4.88 9.432-9.32 15.488-14.008 10.104-7.832 20.544-15.928 24.744-28.32 4.04-11.936.656-24.192-2.616-36.056zm-12.545 30.928c-2.648 7.824-10.784 14.128-19.392 20.8-6.6 5.12-13.432 10.416-18.424 16.976-5.064 6.688-8.264 14.64-11.36 22.344-3.944 9.824-7.672 19.096-14.528 23.88-6.832 4.768-17.208 5.32-28.2 5.904-8.584.456-17.472.928-25.68 3.488-7.848 2.456-15.112 6.976-22.128 11.36-9.4 5.872-18.272 11.408-27.304 11.408s-17.896-5.536-27.296-11.408c-7.008-4.376-14.264-8.904-22.12-11.36-8.208-2.552-17.096-3.032-25.68-3.488-10.992-.584-21.376-1.144-28.2-5.904-6.848-4.784-10.584-14.056-14.528-23.872-3.096-7.704-6.304-15.664-11.376-22.352-4.984-6.56-11.816-11.856-18.424-16.984-8.6-6.672-16.728-12.968-19.376-20.792-2.472-7.288.128-16.712 2.872-26.68 2.24-8.152 4.56-16.568 4.56-25.168 0-8.6-2.32-17.008-4.56-25.16-2.752-9.968-5.344-19.384-2.872-26.672 2.648-7.824 10.768-14.12 19.368-20.792 6.608-5.128 13.448-10.432 18.424-17 5.088-6.688 8.288-14.656 11.392-22.36 3.936-9.816 7.664-19.08 14.504-23.848 6.832-4.776 17.224-5.328 28.224-5.912 8.576-.464 17.464-.936 25.664-3.496 7.864-2.448 15.128-6.984 22.152-11.368 9.384-5.848 18.248-11.384 27.272-11.384s17.896 5.536 27.288 11.4c7.024 4.392 14.28 8.92 22.144 11.368 8.2 2.552 17.08 3.024 25.664 3.488 11 .584 21.384 1.152 28.216 5.92 6.848 4.784 10.576 14.048 14.512 23.848 3.104 7.712 6.296 15.672 11.384 22.36 4.984 6.56 11.816 11.856 18.416 16.976 8.608 6.68 16.744 12.984 19.392 20.824 2.472 7.272-.136 16.688-2.88 26.656-2.248 8.152-4.568 16.568-4.568 25.168s2.312 17.016 4.568 25.16c2.753 9.968 5.352 19.384 2.88 26.672z" fill="#c75a9d"/><path d="M184.008 64.014c-66.168 0-120 53.832-120 120s53.832 120 120 120 120-53.832 120-120-53.832-120-120-120zm0 224c-57.344 0-104-46.656-104-104s46.656-104 104-104c29.576 0 56.24 12.472 75.2 32.36l-76.24 107.288-41.304-41.304c-3.128-3.128-8.184-3.128-11.312 0s-3.128 8.184 0 11.312l48 48a7.973 7.973 0 005.656 2.344c.216 0 .448-.008.672-.032a7.971 7.971 0 005.848-3.336l79.176-111.424c11.52 16.736 18.304 36.976 18.304 58.792 0 57.344-46.656 104-104 104z" fill="#c75a9d"/></svg>