<svg height="55" viewBox="-26 0 512 512" width="49" xmlns="http://www.w3.org/2000/svg"><path d="M460.281 297.129h-39.59l-27.136-12.348H348.71l-27.137 12.348h-78.558v67.629h13.058l1.559 39.16 14.965-.598-1.54-38.562h49.81v56.441h100.53v-56.441h10.836L427.3 488.523l-6.95 6.957H301.1v14.973h125.46l15.472-15.484 5.192-130.211h13.058zm-202.297 52.656v-37.683h62.88v37.683zm148.442 56.442H335.84v-99.141l16.117-7.332h38.352l16.117 7.332zm14.972-56.442v-37.683h23.907v37.683zm-4.703-103.508l13.516-13.515v-22.657l-13.516-13.515h-21.488l-13.516 13.515v22.657l13.516 13.515zm-20.03-29.968l4.745-4.746h9.086l4.742 4.746v10.254l-4.742 4.742h-9.086l-4.746-4.743zm-28.739-76.34l13.511-13.516v-22.656L367.926 90.28h-21.492l-13.516 13.516v22.656l13.516 13.516zm-20.031-29.973l4.742-4.742h9.086l4.742 4.742v10.254l-4.742 4.746h-9.086l-4.742-4.746zm-59.258 118.926l13.515-13.516V192.75l-13.515-13.516h-21.489l-13.515 13.516v22.656l13.515 13.516zm-20.032-29.973l4.743-4.742h9.09l4.742 4.742v10.254l-4.743 4.742h-9.09l-4.742-4.742zm0 0" fill="#c75a9d"/><path d="M236.504 426.082c0-50.637.004-3.914.004-54.984l-26.363-26.364H168.91v-32.84l-8.492-13.847V15.992L156.218 0h-39.78l-4.196 15.992v52.309h14.973c0-57.598-.317-49.168.773-53.328h16.68c1.156 4.402.773-18.399.773 280.57h-18.226V88.593h-14.973V298.06l-8.488 13.836v32.84h-41.23L36.16 371.097c0 92.644-.004-28.676-.004 62.379H51.13v-22.2h170.4v60.348l11.926 11.926 10.59-10.59-7.543-7.54v-24.366h17.703l16.195 16.199v23.465l-16.304 16.308H71.668l-20.54-20.53v-22.724H36.157V482.7L65.47 512h194.828l25.082-25.078V451.05l-24.969-24.973h-23.906zM118.73 316.122l3.434-5.599h28.34l3.434 5.598v28.613H118.73zM51.133 377.3l17.594-17.594H203.94l17.594 17.594v19H51.133zm0 0" fill="#c75a9d"/><path d="M45.918 335.113v-14.972H30.445v-15.473H15.473v15.473H0v14.972h15.473v15.473h14.972v-15.473zM156.512 460.46h-14.973v-14.972h14.973zm-24.957 0h-14.973v-14.972h14.973zm0 0" fill="#c75a9d"/></svg>